<?xml version="1.0" encoding="utf-8"?><svg xmlns="http://www.w3.org/2000/svg" xmlns:xlink="http://www.w3.org/1999/xlink"><symbol viewBox="0 0 9 16" fill="none" id="caret-left-icon" xmlns="http://www.w3.org/2000/svg"><path d="M0.999999 1L8 8L1 15" stroke="#000000" stroke-width="2" stroke-linecap="round" stroke-linejoin="round"/></symbol><symbol viewBox="0 0 16 12" fill="none" id="check-icon" xmlns="http://www.w3.org/2000/svg"><path d="M1 7L5 11L15 1" stroke="white" stroke-width="2" stroke-linecap="round" stroke-linejoin="round"/></symbol><symbol viewBox="0 0 14 14" fill="none" id="cross-icon" xmlns="http://www.w3.org/2000/svg"><path d="M1 13L13 1M1 1L13 13" stroke="#000000" stroke-width="1.5" stroke-linecap="round" stroke-linejoin="round"/></symbol><symbol viewBox="0 0 20 16" fill="none" id="email-icon" xmlns="http://www.w3.org/2000/svg"><path d="M1 4L8.8906 9.2604C9.5624 9.70827 10.4376 9.70827 11.1094 9.2604L19 4M3 15H17C18.1046 15 19 14.1046 19 13V3C19 1.89543 18.1046 1 17 1H3C1.89543 1 1 1.89543 1 3V13C1 14.1046 1.89543 15 3 15Z" stroke="#000000" stroke-width="1.5" stroke-linecap="round" stroke-linejoin="round"/></symbol><symbol viewBox="0 0 12 21" fill="none" id="facebook-icon" xmlns="http://www.w3.org/2000/svg"><path d="M10.8984 11.75H7.96875V20.5H4.0625V11.75H0.859375V8.15625H4.0625V5.38281C4.0625 2.25781 5.9375 0.5 8.78906 0.5C10.1562 0.5 11.6016 0.773438 11.6016 0.773438V3.85938H10C8.4375 3.85938 7.96875 4.79688 7.96875 5.8125V8.15625H11.4453L10.8984 11.75Z" fill="#000000"/></symbol><symbol viewBox="0 0 18 21" fill="none" id="location-icon" xmlns="http://www.w3.org/2000/svg"><path d="M14.6569 15.1569C13.7202 16.0935 11.7616 18.0521 10.4138 19.3999C9.63275 20.181 8.36768 20.1814 7.58663 19.4003C6.26234 18.076 4.34159 16.1553 3.34315 15.1569C0.218951 12.0327 0.218951 6.96734 3.34315 3.84315C6.46734 0.718951 11.5327 0.718951 14.6569 3.84315C17.781 6.96734 17.781 12.0327 14.6569 15.1569Z" stroke="#000000" stroke-width="2" stroke-linecap="round" stroke-linejoin="round"/><path d="M12 9.5C12 11.1569 10.6569 12.5 9 12.5C7.34315 12.5 6 11.1569 6 9.5C6 7.84315 7.34315 6.5 9 6.5C10.6569 6.5 12 7.84315 12 9.5Z" stroke="#000000" stroke-width="2" stroke-linecap="round" stroke-linejoin="round"/></symbol><symbol viewBox="0 0 242 34" fill="none" id="logo" xmlns="http://www.w3.org/2000/svg"><g id="glogo-left"><path d="M0 29.3049H2.74665V16.0016L7.72589 23.3421H9.27512L14.2543 16.0016V29.3049H16.9739V10.4167H14.7978L8.51515 19.5914L2.2303 10.4167H0V29.3049Z" fill="#14373C"/><path d="M33.2428 26.5825H24.4007V21.0223H33.0241V18.2713H24.4007V12.9548H33.2158V10.2307H21.627V29.3067H33.2428V26.5825Z" fill="#14373C"/><path d="M43.636 10.2629H36.8076V29.3121H43.636C49.8645 29.3121 52.9945 24.6175 52.9945 19.896C52.9945 15.1723 49.8645 10.2629 43.636 10.2629ZM43.636 26.5879H39.5543V12.9871H43.636C48.0424 12.9871 50.2726 16.55 50.2726 19.896C50.2726 23.2419 48.0424 26.5879 43.636 26.5879Z" fill="#14373C"/><path d="M55.248 19.9229C55.248 22.5397 56.3914 24.9419 58.024 26.6685C59.6838 28.3952 62.0786 29.4464 64.6629 29.4464C69.0964 29.4464 72.5782 26.5321 73.6674 22.2422H70.9727C69.9939 25.1029 67.5449 26.749 64.6629 26.749C62.8386 26.749 61.0165 25.9931 59.819 24.7518C58.6216 23.5104 57.9158 21.8106 57.9158 19.9229C57.9158 17.9793 58.6487 16.3063 59.8461 15.065C61.0436 13.8237 62.8386 12.9604 64.6629 12.9604C67.4637 12.9604 69.8045 14.4723 70.8103 17.3061H73.5299C72.4429 13.0408 69.0152 10.2629 64.6629 10.2629C62.0786 10.2629 59.6026 11.4506 57.9428 13.1504C56.3102 14.8771 55.248 17.2502 55.248 19.9229Z" fill="#14373C"/><path d="M75.6533 19.866C75.6533 25.3166 80.0349 29.66 85.5283 29.66C91.0238 29.66 95.4325 25.3166 95.4325 19.866C95.4325 14.4153 91.0238 10.0427 85.5283 10.0427C80.0349 10.0427 75.6533 14.4153 75.6533 19.866ZM78.4834 19.866C78.4834 15.9787 81.6112 12.8497 85.5283 12.8497C89.4475 12.8497 92.6024 15.9787 92.6024 19.866C92.6024 23.7509 89.4475 26.8531 85.5283 26.8531C81.6112 26.8531 78.4834 23.7509 78.4834 19.866Z" fill="#14373C"/><path d="M105.713 29.4947C108.978 29.4947 112.733 27.4996 112.733 23.6683V10.2307H109.957V23.6414C109.957 25.717 107.7 26.7704 105.713 26.7704C103.701 26.7704 101.442 25.7461 101.442 23.6683V10.2307H98.668V23.6414C98.668 27.4996 102.369 29.4947 105.713 29.4947Z" fill="#14373C"/><path d="M124.131 10.4167H117.167V29.3049H119.941V23.0178H124.131C128.239 23.0178 130.305 19.8888 130.305 16.7307C130.305 13.5749 128.239 10.4167 124.131 10.4167ZM124.131 20.3204H119.941V13.17H124.131C126.442 13.17 127.585 14.9503 127.585 16.7575C127.585 18.5379 126.442 20.3204 124.131 20.3204Z" fill="#14373C"/><path d="M145.023 26.5807H136.073V10.4167H133.326V29.3049H145.023V26.5807Z" fill="#14373C"/><path d="M159.116 26.5825H150.274V21.0223H158.897V18.2713H150.274V12.9548H159.089V10.2307H147.5V29.3067H159.116V26.5825Z" fill="#14373C"/></g><g id="glogo-right"><path d="M220.725 10.4167H213.762V29.3049H216.535V23.0178H220.725C224.834 23.0178 226.9 19.8888 226.9 16.7307C226.9 13.5749 224.834 10.4167 220.725 10.4167ZM220.725 20.3204H216.535V13.17H220.725C223.037 13.17 224.18 14.9503 224.18 16.7575C224.18 18.5379 223.037 20.3204 220.725 20.3204Z" fill="#14373C"/><path d="M233.512 12.8207V29.3068H236.258V12.8207H242V10.2307H227.743V12.8207H233.512Z" fill="#14373C"/></g><g id="glogo-icon"><path d="M194.772 1.12021C194.493 2.56582 194.182 3.95982 193.348 5.16002C193.113 5.4969 192.77 5.79768 192.411 6.00106C191.928 6.27448 191.41 6.13816 190.937 5.87522C190.845 5.82415 190.754 5.7717 190.638 5.7059C190.187 6.66298 189.743 7.59538 189.314 8.53479C189.274 8.62274 189.316 8.76044 189.348 8.86563C189.536 9.47186 189.937 10.6336 190.387 12.0207C190.579 12.6272 190.321 12.8867 189.717 12.8021C189.586 12.2341 189.447 11.69 189.338 11.1401C189.29 10.8974 189.189 10.7435 188.954 10.6448C188.581 10.4878 188.221 10.3007 187.861 10.1292C187.829 10.1698 187.81 10.1842 187.803 10.203C187.488 11.1422 186.769 11.2568 185.936 10.9603C185.105 10.6648 184.4 10.1643 183.651 9.55275C184.199 9.28944 184.684 9.00123 185.207 8.82186C185.675 8.66111 186.184 8.55556 186.678 8.54167C187.416 8.5209 187.932 8.9971 188.082 9.7381C187.18 9.41816 186.283 9.16258 185.35 9.55634C186.635 9.58675 187.855 9.92196 189.144 10.3552C188.716 8.79582 188.356 7.29891 187.535 5.9288C187.439 5.99986 187.388 6.03375 187.342 6.07356C186.195 7.06236 185.08 7.05021 183.951 6.0395C183.093 5.27167 182.461 4.33232 181.955 3.31939C181.46 2.33029 181.041 1.30395 180.592 0.292521C180.559 0.218044 180.553 0.131892 180.522 0C181.017 0.00850144 181.484 0.00646589 181.951 0.0264024C183.361 0.0866309 184.756 0.250733 186.067 0.812307C186.986 1.20625 187.77 1.77129 188.162 2.73279C188.472 3.49218 188.466 4.26234 188.174 5.08177C187.082 3.61269 185.85 2.37681 184.079 1.81991C183.874 1.75543 183.659 1.72082 183.433 1.71334C186.228 2.98742 187.717 5.38489 189.004 8.0335C190.043 5.99753 191.172 4.10003 192.989 2.66622C192.142 2.76375 191.079 3.8126 189.896 5.67663C189.529 5.2051 189.492 4.26725 189.817 3.59731C190.17 2.86996 190.782 2.4101 191.484 2.06094C192.501 1.55463 193.589 1.27641 194.772 1.12021Z" fill="#14373C"/><path fill-rule="evenodd" clip-rule="evenodd" d="M189.289 23.4732C179.715 35.7937 171.821 24.2622 175.181 18.3861C177.624 14.109 185.838 15.107 190.107 19.3797C186.276 13.8085 181.958 11.7352 178.25 11.5686C179.85 9.91469 180.23 7.35048 179.017 5.26577C177.544 2.73641 174.284 1.86969 171.735 3.32984C169.184 4.79017 168.311 8.02383 169.783 10.5533C170.444 11.6889 171.466 12.4888 172.622 12.8942C171.647 13.4542 170.841 14.1486 170.264 14.8981C166.455 19.8383 168.908 28.6225 173.631 32.233C180.728 37.6591 188.399 29.3641 192.169 23.8392L191.159 21.1698C190.559 21.8752 189.936 22.6416 189.289 23.4732ZM202.775 15.1456C204.014 14.4161 204.845 13.076 204.845 11.5427C204.845 9.23044 202.955 7.35617 200.624 7.35617C198.293 7.35617 196.403 9.23044 196.403 11.5427C196.403 12.9174 197.071 14.1376 198.103 14.9008C196.709 15.4082 195.336 16.3467 194.28 17.6205C194.637 18.3023 195.044 18.91 195.477 19.4779C198.288 16.4856 201.384 17.138 200.305 21.3197C198.011 30.2223 189.607 10.7735 188.958 8.70604C189.46 12.4232 190.368 17.0325 191.683 20.4574C193.746 25.8324 196.558 30.0445 199.735 28.6935C201.72 27.8488 203.341 25.0618 204.062 22.2638C205.047 18.4422 204.288 16.1783 202.775 15.1456Z" fill="#14373C"/><path d="M189.291 23.4666C181.152 33.9409 174.226 27.1758 174.399 21.3034C173.496 27.5888 179.485 36.332 186.314 30.5236C188.676 28.5155 190.715 25.9662 192.171 23.8325L191.161 21.1631C190.561 21.8686 189.938 22.6349 189.291 23.4666Z" fill="#E5A697"/><path d="M195.798 19.1565C195.798 19.1565 197.783 16.9399 199.66 17.3847C201.538 17.8295 200.626 20.9984 200.626 20.9984C200.626 20.9984 200.155 22.5717 199.712 23.0362C199.229 23.5417 199.03 23.5619 199.03 23.5619C199.03 23.5619 200.225 21.3235 199.916 20.2853C199.606 19.2472 198.95 18.5958 198.196 18.5958C197.443 18.5958 195.798 19.1565 195.798 19.1565Z" fill="#E5A697"/></g></symbol><symbol viewBox="0 0 20 20" fill="none" id="phone-icon" xmlns="http://www.w3.org/2000/svg"><path d="M1 3C1 1.89543 1.89543 1 3 1H6.27924C6.70967 1 7.09181 1.27543 7.22792 1.68377L8.72574 6.17721C8.88311 6.64932 8.66938 7.16531 8.22427 7.38787L5.96701 8.5165C7.06925 10.9612 9.03878 12.9308 11.4835 14.033L12.6121 11.7757C12.8347 11.3306 13.3507 11.1169 13.8228 11.2743L18.3162 12.7721C18.7246 12.9082 19 13.2903 19 13.7208V17C19 18.1046 18.1046 19 17 19H16C7.71573 19 1 12.2843 1 4V3Z" stroke="#000000" stroke-width="2" stroke-linecap="round" stroke-linejoin="round"/></symbol><symbol viewBox="0 0 14 14" fill="none" id="plus-icon" xmlns="http://www.w3.org/2000/svg"><path d="M7 1V7M7 7V13M7 7H13M7 7L1 7" stroke="#000000" stroke-width="1.5" stroke-linecap="round" stroke-linejoin="round"/></symbol><symbol viewBox="0 0 100 100" id="sprite" xmlns="http://www.w3.org/2000/svg"><symbol fill="none" viewBox="0 0 9 16" id="kcaret-left-icon" xmlns="http://www.w3.org/2000/svg"><path d="m1 1 7 7-7 7" stroke="#000" stroke-width="2" stroke-linecap="round" stroke-linejoin="round"/></symbol><symbol fill="none" viewBox="0 0 16 12" id="kcheck-icon" xmlns="http://www.w3.org/2000/svg"><path d="m1 7 4 4L15 1" stroke="#fff" stroke-width="2" stroke-linecap="round" stroke-linejoin="round"/></symbol><symbol fill="none" viewBox="0 0 14 14" id="kcross-icon" xmlns="http://www.w3.org/2000/svg"><path d="M1 13 13 1M1 1l12 12" stroke="#000" stroke-width="1.5" stroke-linecap="round" stroke-linejoin="round"/></symbol><symbol fill="none" viewBox="0 0 20 16" id="kemail-icon" xmlns="http://www.w3.org/2000/svg"><path d="m1 4 7.89 5.26a2 2 0 0 0 2.22 0L19 4M3 15h14a2 2 0 0 0 2-2V3a2 2 0 0 0-2-2H3a2 2 0 0 0-2 2v10a2 2 0 0 0 2 2Z" stroke="#000" stroke-width="1.5" stroke-linecap="round" stroke-linejoin="round"/></symbol><symbol fill="none" viewBox="0 0 12 21" id="kfacebook-icon" xmlns="http://www.w3.org/2000/svg"><path d="M10.898 11.75h-2.93v8.75H4.064v-8.75H.858V8.156h3.204V5.383C4.063 2.258 5.938.5 8.788.5c1.367 0 2.813.273 2.813.273V3.86H10c-1.563 0-2.031.938-2.031 1.954v2.343h3.476l-.547 3.594Z" fill="#000"/></symbol><symbol fill="none" viewBox="0 0 18 21" id="klocation-icon" xmlns="http://www.w3.org/2000/svg"><path d="M14.657 15.157 10.414 19.4a1.998 1.998 0 0 1-2.827 0l-4.244-4.243a8 8 0 1 1 11.314 0Z" stroke="#000" stroke-width="2" stroke-linecap="round" stroke-linejoin="round"/><path d="M12 9.5a3 3 0 1 1-6 0 3 3 0 0 1 6 0Z" stroke="#000" stroke-width="2" stroke-linecap="round" stroke-linejoin="round"/></symbol><symbol fill="none" viewBox="0 0 242 34" id="klogo" xmlns="http://www.w3.org/2000/svg"><g fill="#14373C"><path d="M0 29.305h2.747V16.002l4.979 7.34h1.55l4.978-7.34v13.303h2.72V10.417h-2.176L8.515 19.59 2.23 10.417H0v18.888ZM33.243 26.582H24.4v-5.56h8.623v-2.75h-8.623v-5.317h8.815V10.23H21.627v19.076h11.616v-2.724ZM43.636 10.263h-6.828v19.05h6.828c6.228 0 9.358-4.695 9.358-9.417 0-4.724-3.13-9.633-9.358-9.633Zm0 16.325h-4.082v-13.6h4.082c4.406 0 6.637 3.562 6.637 6.908 0 3.346-2.23 6.692-6.637 6.692ZM55.248 19.923c0 2.617 1.143 5.019 2.776 6.746 1.66 1.726 4.055 2.777 6.639 2.777 4.433 0 7.915-2.914 9.004-7.204h-2.694c-.98 2.86-3.428 4.507-6.31 4.507-1.824 0-3.646-.756-4.844-1.997-1.197-1.242-1.903-2.941-1.903-4.83 0-1.943.733-3.616 1.93-4.857 1.198-1.241 2.993-2.105 4.817-2.105 2.8 0 5.142 1.512 6.147 4.346h2.72c-1.087-4.265-4.515-7.043-8.867-7.043-2.584 0-5.06 1.188-6.72 2.887a9.83 9.83 0 0 0-2.695 6.773ZM75.653 19.866c0 5.45 4.382 9.794 9.875 9.794 5.496 0 9.904-4.343 9.904-9.794 0-5.45-4.408-9.823-9.904-9.823-5.493 0-9.875 4.372-9.875 9.823Zm2.83 0a7.006 7.006 0 0 1 7.045-7.016c3.92 0 7.074 3.129 7.074 7.016 0 3.885-3.154 6.987-7.074 6.987-3.917 0-7.045-3.102-7.045-6.987ZM105.713 29.495c3.265 0 7.02-1.995 7.02-5.827V10.231h-2.776v13.41c0 2.076-2.257 3.13-4.244 3.13-2.012 0-4.271-1.025-4.271-3.103V10.231h-2.774v13.41c0 3.859 3.701 5.854 7.045 5.854ZM124.131 10.417h-6.964v18.888h2.774v-6.287h4.19c4.108 0 6.174-3.13 6.174-6.287 0-3.156-2.066-6.314-6.174-6.314Zm0 9.903h-4.19v-7.15h4.19c2.311 0 3.454 1.78 3.454 3.588 0 1.78-1.143 3.562-3.454 3.562ZM145.023 26.58h-8.95V10.418h-2.747v18.888h11.697V26.58ZM159.116 26.582h-8.842v-5.56h8.623v-2.75h-8.623v-5.317h8.815V10.23H147.5v19.076h11.616v-2.724Z"/></g><g fill="#14373C"><path d="M220.725 10.417h-6.963v18.888h2.773v-6.287h4.19c4.109 0 6.175-3.13 6.175-6.287 0-3.156-2.066-6.314-6.175-6.314Zm0 9.903h-4.19v-7.15h4.19c2.312 0 3.455 1.78 3.455 3.588 0 1.78-1.143 3.562-3.455 3.562ZM233.512 12.82v16.487h2.746V12.82H242v-2.59h-14.257v2.59h5.769Z"/></g><path d="M194.772 1.12c-.279 1.446-.59 2.84-1.424 4.04a2.935 2.935 0 0 1-.937.841c-.483.273-1.001.137-1.474-.126-.092-.05-.183-.103-.299-.17-.451.958-.895 1.89-1.324 2.83-.04.088.002.225.034.33.188.607.589 1.769 1.039 3.156.192.606-.066.866-.67.781-.131-.568-.27-1.112-.379-1.662-.048-.243-.149-.397-.384-.495-.373-.157-.733-.344-1.093-.516-.032.04-.051.055-.058.074-.315.94-1.034 1.054-1.867.757-.831-.295-1.536-.796-2.285-1.407.548-.264 1.033-.552 1.556-.731a5.04 5.04 0 0 1 1.471-.28c.738-.021 1.254.455 1.404 1.196-.902-.32-1.799-.575-2.732-.182 1.285.03 2.505.366 3.794.8-.428-1.56-.788-3.057-1.609-4.427-.096.07-.147.105-.193.145-1.147.988-2.262.976-3.391-.034-.858-.768-1.49-1.708-1.996-2.72-.495-.99-.914-2.016-1.363-3.027-.033-.075-.039-.161-.07-.293.495.009.962.006 1.429.026 1.41.06 2.805.225 4.116.786.919.394 1.703.96 2.095 1.92.31.76.304 1.53.012 2.35-1.092-1.47-2.324-2.705-4.095-3.262-.205-.065-.42-.1-.646-.107 2.795 1.274 4.284 3.672 5.571 6.32 1.039-2.035 2.168-3.933 3.985-5.367-.847.098-1.91 1.147-3.093 3.01-.367-.47-.404-1.409-.079-2.079.353-.727.965-1.187 1.667-1.536 1.017-.506 2.105-.785 3.288-.94Z" fill="#14373C"/><path fill-rule="evenodd" clip-rule="evenodd" d="M189.289 23.473c-9.574 12.32-17.468.79-14.108-5.087 2.443-4.277 10.657-3.279 14.926.994-3.831-5.571-8.149-7.645-11.857-7.811a5.257 5.257 0 0 0 .767-6.303c-1.473-2.53-4.733-3.396-7.282-1.936a5.264 5.264 0 0 0-1.952 7.223 5.302 5.302 0 0 0 2.839 2.341c-.975.56-1.781 1.255-2.358 2.004-3.809 4.94-1.356 13.724 3.367 17.335 7.097 5.426 14.768-2.869 18.538-8.394l-1.01-2.67a68.09 68.09 0 0 0-1.87 2.304Zm13.486-8.327a4.178 4.178 0 0 0 2.07-3.603c0-2.313-1.89-4.187-4.221-4.187-2.331 0-4.221 1.874-4.221 4.187 0 1.374.668 2.595 1.7 3.358-1.394.507-2.767 1.446-3.823 2.72.357.681.764 1.289 1.197 1.857 2.811-2.992 5.907-2.34 4.828 1.842-2.294 8.902-10.698-10.546-11.347-12.614.502 3.717 1.41 8.326 2.725 11.751 2.063 5.375 4.875 9.587 8.052 8.236 1.985-.844 3.606-3.631 4.327-6.43.985-3.82.226-6.085-1.287-7.117Z" fill="#14373C"/><path d="M189.291 23.467c-8.139 10.474-15.065 3.709-14.892-2.164-.903 6.286 5.086 15.029 11.915 9.22 2.362-2.008 4.401-4.557 5.857-6.69l-1.01-2.67c-.6.706-1.223 1.472-1.87 2.304ZM195.798 19.157s1.985-2.217 3.862-1.772c1.878.444.966 3.613.966 3.613s-.471 1.574-.914 2.038c-.483.506-.682.526-.682.526s1.195-2.239.886-3.277c-.31-1.038-.966-1.69-1.72-1.69-.753 0-2.398.562-2.398.562Z" fill="#E5A697"/></symbol><symbol fill="none" viewBox="0 0 20 20" id="kphone-icon" xmlns="http://www.w3.org/2000/svg"><path d="M1 3a2 2 0 0 1 2-2h3.28a1 1 0 0 1 .948.684l1.498 4.493a1 1 0 0 1-.502 1.21l-2.257 1.13a11.042 11.042 0 0 0 5.516 5.516l1.13-2.257a1 1 0 0 1 1.21-.502l4.493 1.498a1 1 0 0 1 .684.949V17a2 2 0 0 1-2 2h-1C7.716 19 1 12.284 1 4V3Z" stroke="#000" stroke-width="2" stroke-linecap="round" stroke-linejoin="round"/></symbol><symbol fill="none" viewBox="0 0 14 14" id="kplus-icon" xmlns="http://www.w3.org/2000/svg"><path d="M7 1v6m0 0v6m0-6h6M7 7H1" stroke="#000" stroke-width="1.5" stroke-linecap="round" stroke-linejoin="round"/></symbol><symbol fill="none" viewBox="0 0 20 21" id="ktelegram-circle-icon" xmlns="http://www.w3.org/2000/svg"><path d="M9.688.813a9.686 9.686 0 0 1 9.687 9.687 9.686 9.686 0 0 1-9.688 9.688A9.686 9.686 0 0 1 0 10.5 9.686 9.686 0 0 1 9.688.812Zm4.726 6.64c.156-.625-.234-.898-.664-.742l-9.336 3.594c-.625.234-.625.625-.117.78l2.383.743 5.547-3.515c.273-.157.507-.04.312.117l-4.492 4.062-.156 2.461c.234 0 .351-.117.468-.234l1.172-1.133 2.422 1.797c.469.234.781.117.899-.43l1.562-7.5Z" fill="#000"/></symbol><symbol fill="none" viewBox="0 0 15 13" id="ktelegram-icon" xmlns="http://www.w3.org/2000/svg"><path d="m14.62 1.777-2.093 9.968c-.156.688-.594.875-1.188.532L8.121 9.902l-1.532 1.5c-.187.187-.312.312-.656.312l.219-3.281 5.969-5.375c.28-.219-.063-.375-.407-.125L4.34 7.558l-3.156-.969c-.687-.219-.719-.687.125-1.031L13.746.777c.562-.22 1.062.125.875 1Z" fill="#000"/></symbol><symbol fill="none" viewBox="0 0 15 15" id="kwhatsapp-icon" xmlns="http://www.w3.org/2000/svg"><path d="M12.534 2.77c1.312 1.312 2.125 3.031 2.125 4.906 0 3.813-3.188 6.938-7.032 6.938-1.156 0-2.28-.313-3.312-.844l-3.656.937.968-3.594A6.945 6.945 0 0 1 .69 7.646C.69 3.832 3.815.707 7.627.707c1.875 0 3.625.75 4.907 2.063ZM7.627 13.426c3.188 0 5.844-2.594 5.844-5.75 0-1.562-.656-3-1.75-4.094A5.697 5.697 0 0 0 7.66 1.895c-3.188 0-5.782 2.594-5.782 5.75 0 1.094.313 2.156.875 3.094l.157.218-.594 2.125 2.187-.594.188.126a5.78 5.78 0 0 0 2.937.812Zm3.188-4.312c.156.093.281.125.312.218.063.063.063.407-.093.813-.157.406-.844.781-1.157.812-.562.094-1 .063-2.093-.437-1.75-.75-2.875-2.5-2.97-2.594-.093-.125-.687-.937-.687-1.812 0-.844.438-1.25.594-1.438a.586.586 0 0 1 .469-.219h.312c.125 0 .25-.031.407.313.125.344.5 1.187.53 1.281.032.094.063.188 0 .313-.312.656-.687.625-.5.937.688 1.156 1.345 1.563 2.376 2.063.156.093.25.062.375-.032.094-.125.437-.531.531-.687.125-.188.25-.156.406-.094.157.063 1 .469 1.188.563Z" fill="#000"/></symbol></symbol><symbol viewBox="0 0 242 134" id="sprite-e73c0cb4" xmlns="http://www.w3.org/2000/svg"><svg width="9" height="16" fill="none" viewBox="0 0 9 16" id="jcaret-left-icon" x="170" y="34" xmlns="http://www.w3.org/2000/svg"><path d="m1 1 7 7-7 7" stroke="#000" stroke-width="2" stroke-linecap="round" stroke-linejoin="round"/></svg><svg width="16" height="12" fill="none" viewBox="0 0 16 12" id="jcheck-icon" x="179" y="34" xmlns="http://www.w3.org/2000/svg"><path d="m1 7 4 4L15 1" stroke="#fff" stroke-width="2" stroke-linecap="round" stroke-linejoin="round"/></svg><svg width="14" height="14" fill="none" viewBox="0 0 14 14" id="jcross-icon" x="115" y="75" xmlns="http://www.w3.org/2000/svg"><path d="M1 13 13 1M1 1l12 12" stroke="#000" stroke-width="1.5" stroke-linecap="round" stroke-linejoin="round"/></svg><svg width="20" height="16" fill="none" viewBox="0 0 20 16" id="jemail-icon" x="150" y="34" xmlns="http://www.w3.org/2000/svg"><path d="m1 4 7.89 5.26a2 2 0 0 0 2.22 0L19 4M3 15h14a2 2 0 0 0 2-2V3a2 2 0 0 0-2-2H3a2 2 0 0 0-2 2v10a2 2 0 0 0 2 2Z" stroke="#000" stroke-width="1.5" stroke-linecap="round" stroke-linejoin="round"/></svg><svg width="12" height="21" fill="none" viewBox="0 0 12 21" id="jfacebook-icon" x="100" y="34" xmlns="http://www.w3.org/2000/svg"><path d="M10.898 11.75h-2.93v8.75H4.064v-8.75H.858V8.156h3.204V5.383C4.063 2.258 5.938.5 8.788.5c1.367 0 2.813.273 2.813.273V3.86H10c-1.563 0-2.031.938-2.031 1.954v2.343h3.476l-.547 3.594Z" fill="#000"/></svg><svg width="18" height="21" fill="none" viewBox="0 0 18 21" id="jlocation-icon" x="112" y="34" xmlns="http://www.w3.org/2000/svg"><path d="M14.657 15.157 10.414 19.4a1.998 1.998 0 0 1-2.827 0l-4.244-4.243a8 8 0 1 1 11.314 0Z" stroke="#000" stroke-width="2" stroke-linecap="round" stroke-linejoin="round"/><path d="M12 9.5a3 3 0 1 1-6 0 3 3 0 0 1 6 0Z" stroke="#000" stroke-width="2" stroke-linecap="round" stroke-linejoin="round"/></svg><svg width="242" height="34" fill="none" viewBox="0 0 242 34" id="jlogo" xmlns="http://www.w3.org/2000/svg"><g fill="#14373C"><path d="M0 29.305h2.747V16.002l4.979 7.34h1.55l4.978-7.34v13.303h2.72V10.417h-2.176L8.515 19.59 2.23 10.417H0v18.888ZM33.243 26.582H24.4v-5.56h8.623v-2.75h-8.623v-5.317h8.815V10.23H21.627v19.076h11.616v-2.724ZM43.636 10.263h-6.828v19.05h6.828c6.228 0 9.358-4.695 9.358-9.417 0-4.724-3.13-9.633-9.358-9.633Zm0 16.325h-4.082v-13.6h4.082c4.406 0 6.637 3.562 6.637 6.908 0 3.346-2.23 6.692-6.637 6.692ZM55.248 19.923c0 2.617 1.143 5.019 2.776 6.746 1.66 1.726 4.055 2.777 6.639 2.777 4.433 0 7.915-2.914 9.004-7.204h-2.694c-.98 2.86-3.428 4.507-6.31 4.507-1.824 0-3.646-.756-4.844-1.997-1.197-1.242-1.903-2.941-1.903-4.83 0-1.943.733-3.616 1.93-4.857 1.198-1.241 2.993-2.105 4.817-2.105 2.8 0 5.142 1.512 6.147 4.346h2.72c-1.087-4.265-4.515-7.043-8.867-7.043-2.584 0-5.06 1.188-6.72 2.887a9.83 9.83 0 0 0-2.695 6.773ZM75.653 19.866c0 5.45 4.382 9.794 9.875 9.794 5.496 0 9.904-4.343 9.904-9.794 0-5.45-4.408-9.823-9.904-9.823-5.493 0-9.875 4.372-9.875 9.823Zm2.83 0a7.006 7.006 0 0 1 7.045-7.016c3.92 0 7.074 3.129 7.074 7.016 0 3.885-3.154 6.987-7.074 6.987-3.917 0-7.045-3.102-7.045-6.987ZM105.713 29.495c3.265 0 7.02-1.995 7.02-5.827V10.231h-2.776v13.41c0 2.076-2.257 3.13-4.244 3.13-2.012 0-4.271-1.025-4.271-3.103V10.231h-2.774v13.41c0 3.859 3.701 5.854 7.045 5.854ZM124.131 10.417h-6.964v18.888h2.774v-6.287h4.19c4.108 0 6.174-3.13 6.174-6.287 0-3.156-2.066-6.314-6.174-6.314Zm0 9.903h-4.19v-7.15h4.19c2.311 0 3.454 1.78 3.454 3.588 0 1.78-1.143 3.562-3.454 3.562ZM145.023 26.58h-8.95V10.418h-2.747v18.888h11.697V26.58ZM159.116 26.582h-8.842v-5.56h8.623v-2.75h-8.623v-5.317h8.815V10.23H147.5v19.076h11.616v-2.724Z"/></g><g fill="#14373C"><path d="M220.725 10.417h-6.963v18.888h2.773v-6.287h4.19c4.109 0 6.175-3.13 6.175-6.287 0-3.156-2.066-6.314-6.175-6.314Zm0 9.903h-4.19v-7.15h4.19c2.312 0 3.455 1.78 3.455 3.588 0 1.78-1.143 3.562-3.455 3.562ZM233.512 12.82v16.487h2.746V12.82H242v-2.59h-14.257v2.59h5.769Z"/></g><path d="M194.772 1.12c-.279 1.446-.59 2.84-1.424 4.04a2.935 2.935 0 0 1-.937.841c-.483.273-1.001.137-1.474-.126-.092-.05-.183-.103-.299-.17-.451.958-.895 1.89-1.324 2.83-.04.088.002.225.034.33.188.607.589 1.769 1.039 3.156.192.606-.066.866-.67.781-.131-.568-.27-1.112-.379-1.662-.048-.243-.149-.397-.384-.495-.373-.157-.733-.344-1.093-.516-.032.04-.051.055-.058.074-.315.94-1.034 1.054-1.867.757-.831-.295-1.536-.796-2.285-1.407.548-.264 1.033-.552 1.556-.731a5.04 5.04 0 0 1 1.471-.28c.738-.021 1.254.455 1.404 1.196-.902-.32-1.799-.575-2.732-.182 1.285.03 2.505.366 3.794.8-.428-1.56-.788-3.057-1.609-4.427-.096.07-.147.105-.193.145-1.147.988-2.262.976-3.391-.034-.858-.768-1.49-1.708-1.996-2.72-.495-.99-.914-2.016-1.363-3.027-.033-.075-.039-.161-.07-.293.495.009.962.006 1.429.026 1.41.06 2.805.225 4.116.786.919.394 1.703.96 2.095 1.92.31.76.304 1.53.012 2.35-1.092-1.47-2.324-2.705-4.095-3.262-.205-.065-.42-.1-.646-.107 2.795 1.274 4.284 3.672 5.571 6.32 1.039-2.035 2.168-3.933 3.985-5.367-.847.098-1.91 1.147-3.093 3.01-.367-.47-.404-1.409-.079-2.079.353-.727.965-1.187 1.667-1.536 1.017-.506 2.105-.785 3.288-.94Z" fill="#14373C"/><path fill-rule="evenodd" clip-rule="evenodd" d="M189.289 23.473c-9.574 12.32-17.468.79-14.108-5.087 2.443-4.277 10.657-3.279 14.926.994-3.831-5.571-8.149-7.645-11.857-7.811a5.257 5.257 0 0 0 .767-6.303c-1.473-2.53-4.733-3.396-7.282-1.936a5.264 5.264 0 0 0-1.952 7.223 5.302 5.302 0 0 0 2.839 2.341c-.975.56-1.781 1.255-2.358 2.004-3.809 4.94-1.356 13.724 3.367 17.335 7.097 5.426 14.768-2.869 18.538-8.394l-1.01-2.67a68.09 68.09 0 0 0-1.87 2.304Zm13.486-8.327a4.178 4.178 0 0 0 2.07-3.603c0-2.313-1.89-4.187-4.221-4.187-2.331 0-4.221 1.874-4.221 4.187 0 1.374.668 2.595 1.7 3.358-1.394.507-2.767 1.446-3.823 2.72.357.681.764 1.289 1.197 1.857 2.811-2.992 5.907-2.34 4.828 1.842-2.294 8.902-10.698-10.546-11.347-12.614.502 3.717 1.41 8.326 2.725 11.751 2.063 5.375 4.875 9.587 8.052 8.236 1.985-.844 3.606-3.631 4.327-6.43.985-3.82.226-6.085-1.287-7.117Z" fill="#14373C"/><path d="M189.291 23.467c-8.139 10.474-15.065 3.709-14.892-2.164-.903 6.286 5.086 15.029 11.915 9.22 2.362-2.008 4.401-4.557 5.857-6.69l-1.01-2.67c-.6.706-1.223 1.472-1.87 2.304ZM195.798 19.157s1.985-2.217 3.862-1.772c1.878.444.966 3.613.966 3.613s-.471 1.574-.914 2.038c-.483.506-.682.526-.682.526s1.195-2.239.886-3.277c-.31-1.038-.966-1.69-1.72-1.69-.753 0-2.398.562-2.398.562Z" fill="#E5A697"/></svg><svg width="20" height="20" fill="none" viewBox="0 0 20 20" id="jphone-icon" x="100" y="55" xmlns="http://www.w3.org/2000/svg"><path d="M1 3a2 2 0 0 1 2-2h3.28a1 1 0 0 1 .948.684l1.498 4.493a1 1 0 0 1-.502 1.21l-2.257 1.13a11.042 11.042 0 0 0 5.516 5.516l1.13-2.257a1 1 0 0 1 1.21-.502l4.493 1.498a1 1 0 0 1 .684.949V17a2 2 0 0 1-2 2h-1C7.716 19 1 12.284 1 4V3Z" stroke="#000" stroke-width="2" stroke-linecap="round" stroke-linejoin="round"/></svg><svg width="14" height="14" fill="none" viewBox="0 0 14 14" id="jplus-icon" x="129" y="75" xmlns="http://www.w3.org/2000/svg"><path d="M7 1v6m0 0v6m0-6h6M7 7H1" stroke="#000" stroke-width="1.5" stroke-linecap="round" stroke-linejoin="round"/></svg><svg viewBox="0 0 100 100" width="100" height="100" id="jsprite" y="34" xmlns="http://www.w3.org/2000/svg"/><svg width="20" height="21" fill="none" viewBox="0 0 20 21" id="jtelegram-circle-icon" x="130" y="34" xmlns="http://www.w3.org/2000/svg"><path d="M9.688.813a9.686 9.686 0 0 1 9.687 9.687 9.686 9.686 0 0 1-9.688 9.688A9.686 9.686 0 0 1 0 10.5 9.686 9.686 0 0 1 9.688.812Zm4.726 6.64c.156-.625-.234-.898-.664-.742l-9.336 3.594c-.625.234-.625.625-.117.78l2.383.743 5.547-3.515c.273-.157.507-.04.312.117l-4.492 4.062-.156 2.461c.234 0 .351-.117.468-.234l1.172-1.133 2.422 1.797c.469.234.781.117.899-.43l1.562-7.5Z" fill="#000"/></svg><svg width="15" height="13" fill="none" viewBox="0 0 15 13" id="jtelegram-icon" x="120" y="55" xmlns="http://www.w3.org/2000/svg"><path d="m14.62 1.777-2.093 9.968c-.156.688-.594.875-1.188.532L8.121 9.902l-1.532 1.5c-.187.187-.312.312-.656.312l.219-3.281 5.969-5.375c.28-.219-.063-.375-.407-.125L4.34 7.558l-3.156-.969c-.687-.219-.719-.687.125-1.031L13.746.777c.562-.22 1.062.125.875 1Z" fill="#000"/></svg><svg width="15" height="15" fill="none" viewBox="0 0 15 15" id="jwhatsapp-icon" x="100" y="75" xmlns="http://www.w3.org/2000/svg"><path d="M12.534 2.77c1.312 1.312 2.125 3.031 2.125 4.906 0 3.813-3.188 6.938-7.032 6.938-1.156 0-2.28-.313-3.312-.844l-3.656.937.968-3.594A6.945 6.945 0 0 1 .69 7.646C.69 3.832 3.815.707 7.627.707c1.875 0 3.625.75 4.907 2.063ZM7.627 13.426c3.188 0 5.844-2.594 5.844-5.75 0-1.562-.656-3-1.75-4.094A5.697 5.697 0 0 0 7.66 1.895c-3.188 0-5.782 2.594-5.782 5.75 0 1.094.313 2.156.875 3.094l.157.218-.594 2.125 2.187-.594.188.126a5.78 5.78 0 0 0 2.937.812Zm3.188-4.312c.156.093.281.125.312.218.063.063.063.407-.093.813-.157.406-.844.781-1.157.812-.562.094-1 .063-2.093-.437-1.75-.75-2.875-2.5-2.97-2.594-.093-.125-.687-.937-.687-1.812 0-.844.438-1.25.594-1.438a.586.586 0 0 1 .469-.219h.312c.125 0 .25-.031.407.313.125.344.5 1.187.53 1.281.032.094.063.188 0 .313-.312.656-.687.625-.5.937.688 1.156 1.345 1.563 2.376 2.063.156.093.25.062.375-.032.094-.125.437-.531.531-.687.125-.188.25-.156.406-.094.157.063 1 .469 1.188.563Z" fill="#000"/></svg></symbol><symbol viewBox="0 0 20 21" fill="none" id="telegram-circle-icon" xmlns="http://www.w3.org/2000/svg"><path d="M9.6875 0.8125C15.0391 0.8125 19.375 5.14844 19.375 10.5C19.375 15.8516 15.0391 20.1875 9.6875 20.1875C4.33594 20.1875 0 15.8516 0 10.5C0 5.14844 4.33594 0.8125 9.6875 0.8125ZM14.4141 7.45312C14.5703 6.82812 14.1797 6.55469 13.75 6.71094L4.41406 10.3047C3.78906 10.5391 3.78906 10.9297 4.29688 11.0859L6.67969 11.8281L12.2266 8.3125C12.5 8.15625 12.7344 8.27344 12.5391 8.42969L8.04688 12.4922L7.89062 14.9531C8.125 14.9531 8.24219 14.8359 8.35938 14.7188L9.53125 13.5859L11.9531 15.3828C12.4219 15.6172 12.7344 15.5 12.8516 14.9531L14.4141 7.45312Z" fill="#000000"/></symbol><symbol viewBox="0 0 15 13" fill="none" id="telegram-icon" xmlns="http://www.w3.org/2000/svg"><path d="M14.6206 1.77661L12.5269 11.7454C12.3706 12.4329 11.9331 12.6204 11.3394 12.2766L8.12061 9.90161L6.58936 11.4016C6.40186 11.5891 6.27686 11.7141 5.93311 11.7141L6.15186 8.43286L12.1206 3.05786C12.4019 2.83911 12.0581 2.68286 11.7144 2.93286L4.33936 7.55786L1.18311 6.58911C0.495605 6.37036 0.464355 5.90161 1.30811 5.55786L13.7456 0.776611C14.3081 0.557861 14.8081 0.901611 14.6206 1.77661Z" fill="#000000"/></symbol><symbol viewBox="0 0 15 15" fill="none" id="whatsapp-icon" xmlns="http://www.w3.org/2000/svg"><path d="M12.5337 2.76978C13.8462 4.08228 14.6587 5.80103 14.6587 7.67603C14.6587 11.4885 11.4712 14.6135 7.62744 14.6135C6.47119 14.6135 5.34619 14.301 4.31494 13.7698L0.658691 14.7073L1.62744 11.1135C1.03369 10.0823 0.689941 8.89478 0.689941 7.64478C0.689941 3.83228 3.81494 0.707275 7.62744 0.707275C9.50244 0.707275 11.2524 1.45728 12.5337 2.76978ZM7.62744 13.426C10.8149 13.426 13.4712 10.8323 13.4712 7.67603C13.4712 6.11353 12.8149 4.67603 11.7212 3.58228C10.6274 2.48853 9.18994 1.89478 7.65869 1.89478C4.47119 1.89478 1.87744 4.48853 1.87744 7.64478C1.87744 8.73853 2.18994 9.80103 2.75244 10.7385L2.90869 10.9573L2.31494 13.0823L4.50244 12.4885L4.68994 12.6135C5.59619 13.1448 6.59619 13.426 7.62744 13.426ZM10.8149 9.11353C10.9712 9.20728 11.0962 9.23853 11.1274 9.33228C11.1899 9.39478 11.1899 9.73853 11.0337 10.1448C10.8774 10.551 10.1899 10.926 9.87744 10.9573C9.31494 11.051 8.87744 11.0198 7.78369 10.5198C6.03369 9.76978 4.90869 8.01978 4.81494 7.92603C4.72119 7.80103 4.12744 6.98853 4.12744 6.11353C4.12744 5.26978 4.56494 4.86353 4.72119 4.67603C4.87744 4.48853 5.06494 4.45728 5.18994 4.45728C5.28369 4.45728 5.40869 4.45728 5.50244 4.45728C5.62744 4.45728 5.75244 4.42603 5.90869 4.76978C6.03369 5.11353 6.40869 5.95728 6.43994 6.05103C6.47119 6.14478 6.50244 6.23853 6.43994 6.36353C6.12744 7.01978 5.75244 6.98853 5.93994 7.30103C6.62744 8.45728 7.28369 8.86353 8.31494 9.36353C8.47119 9.45728 8.56494 9.42603 8.68994 9.33228C8.78369 9.20728 9.12744 8.80103 9.22119 8.64478C9.34619 8.45728 9.47119 8.48853 9.62744 8.55103C9.78369 8.61353 10.6274 9.01978 10.8149 9.11353Z" fill="#000000"/></symbol></svg>