<svg width="15" height="15" viewBox="0 0 15 15" fill="none" xmlns="http://www.w3.org/2000/svg">
<path d="M12.5337 2.76978C13.8462 4.08228 14.6587 5.80103 14.6587 7.67603C14.6587 11.4885 11.4712 14.6135 7.62744 14.6135C6.47119 14.6135 5.34619 14.301 4.31494 13.7698L0.658691 14.7073L1.62744 11.1135C1.03369 10.0823 0.689941 8.89478 0.689941 7.64478C0.689941 3.83228 3.81494 0.707275 7.62744 0.707275C9.50244 0.707275 11.2524 1.45728 12.5337 2.76978ZM7.62744 13.426C10.8149 13.426 13.4712 10.8323 13.4712 7.67603C13.4712 6.11353 12.8149 4.67603 11.7212 3.58228C10.6274 2.48853 9.18994 1.89478 7.65869 1.89478C4.47119 1.89478 1.87744 4.48853 1.87744 7.64478C1.87744 8.73853 2.18994 9.80103 2.75244 10.7385L2.90869 10.9573L2.31494 13.0823L4.50244 12.4885L4.68994 12.6135C5.59619 13.1448 6.59619 13.426 7.62744 13.426ZM10.8149 9.11353C10.9712 9.20728 11.0962 9.23853 11.1274 9.33228C11.1899 9.39478 11.1899 9.73853 11.0337 10.1448C10.8774 10.551 10.1899 10.926 9.87744 10.9573C9.31494 11.051 8.87744 11.0198 7.78369 10.5198C6.03369 9.76978 4.90869 8.01978 4.81494 7.92603C4.72119 7.80103 4.12744 6.98853 4.12744 6.11353C4.12744 5.26978 4.56494 4.86353 4.72119 4.67603C4.87744 4.48853 5.06494 4.45728 5.18994 4.45728C5.28369 4.45728 5.40869 4.45728 5.50244 4.45728C5.62744 4.45728 5.75244 4.42603 5.90869 4.76978C6.03369 5.11353 6.40869 5.95728 6.43994 6.05103C6.47119 6.14478 6.50244 6.23853 6.43994 6.36353C6.12744 7.01978 5.75244 6.98853 5.93994 7.30103C6.62744 8.45728 7.28369 8.86353 8.31494 9.36353C8.47119 9.45728 8.56494 9.42603 8.68994 9.33228C8.78369 9.20728 9.12744 8.80103 9.22119 8.64478C9.34619 8.45728 9.47119 8.48853 9.62744 8.55103C9.78369 8.61353 10.6274 9.01978 10.8149 9.11353Z" fill="#000000"/>
</svg>
