<svg width="37" height="34" viewBox="0 0 37 34" fill="none" xmlns="http://www.w3.org/2000/svg">
<path d="M26.3779 1.12021C26.0994 2.56582 25.7883 3.95982 24.9539 5.16002C24.7197 5.4969 24.376 5.79768 24.0169 6.00106C23.5341 6.27448 23.0166 6.13816 22.5434 5.87522C22.4515 5.82415 22.3603 5.7717 22.2441 5.7059C21.7935 6.66298 21.3493 7.59538 20.9207 8.53479C20.8805 8.62274 20.9217 8.76044 20.9543 8.86563C21.1425 9.47186 21.5436 10.6336 21.9935 12.0207C22.1855 12.6272 21.9271 12.8867 21.3236 12.8021C21.192 12.2341 21.0535 11.69 20.9446 11.1401C20.8965 10.8974 20.7947 10.7435 20.5601 10.6448C20.1871 10.4878 19.827 10.3007 19.4674 10.1292C19.4349 10.1698 19.4157 10.1842 19.4095 10.203C19.0943 11.1422 18.3749 11.2568 17.5419 10.9603C16.7113 10.6648 16.0057 10.1643 15.2573 9.55275C15.8055 9.28944 16.2902 9.00123 16.813 8.82186C17.2815 8.66111 17.7898 8.55556 18.2838 8.54167C19.0226 8.5209 19.5381 8.9971 19.6879 9.7381C18.7859 9.41816 17.8895 9.16258 16.9565 9.55634C18.241 9.58675 19.461 9.92196 20.7505 10.3552C20.3226 8.79582 19.9623 7.29891 19.1408 5.9288C19.0457 5.99986 18.9943 6.03375 18.9481 6.07356C17.801 7.06236 16.6866 7.05021 15.5569 6.0395C14.6987 5.27167 14.0675 4.33232 13.561 3.31939C13.0664 2.33029 12.6474 1.30395 12.1985 0.292521C12.1654 0.218044 12.1592 0.131892 12.1287 0C12.6232 0.00850144 13.0905 0.00646589 13.5569 0.0264024C14.9676 0.0866309 16.3621 0.250733 17.673 0.812307C18.5924 1.20625 19.3758 1.77129 19.7684 2.73279C20.0785 3.49218 20.0719 4.26234 19.7805 5.08177C18.6879 3.61269 17.4562 2.37681 15.6851 1.81991C15.4801 1.75543 15.2656 1.72082 15.0396 1.71334C17.8347 2.98742 19.3229 5.38489 20.6106 8.0335C21.649 5.99753 22.7778 4.10003 24.5955 2.66622C23.7483 2.76375 22.6854 3.8126 21.5018 5.67663C21.1356 5.2051 21.0983 4.26725 21.4232 3.59731C21.7759 2.86996 22.3886 2.4101 23.0898 2.06094C24.1067 1.55463 25.1949 1.27641 26.3779 1.12021Z" fill="#14373C"/>
<path fill-rule="evenodd" clip-rule="evenodd" d="M20.8953 23.4732C11.3214 35.7937 3.42713 24.2622 6.78713 18.3861C9.23081 14.109 17.4445 15.107 21.713 19.3797C17.882 13.8085 13.5648 11.7352 9.85611 11.5686C11.4562 9.91469 11.8367 7.35048 10.6233 5.26577C9.15089 2.73641 5.89056 1.86969 3.341 3.32984C0.790593 4.79017 -0.0829857 8.02383 1.38933 10.5533C2.05061 11.6889 3.07201 12.4888 4.22863 12.8942C3.25376 13.4542 2.44792 14.1486 1.87037 14.8981C-1.93849 19.8383 0.514486 28.6225 5.237 32.233C12.3348 37.6591 20.0058 29.3641 23.775 23.8392L22.7655 21.1698C22.1654 21.8752 21.5427 22.6416 20.8953 23.4732ZM34.3811 15.1456C35.6206 14.4161 36.4517 13.076 36.4517 11.5427C36.4517 9.23044 34.5619 7.35617 32.2306 7.35617C29.8994 7.35617 28.0095 9.23044 28.0095 11.5427C28.0095 12.9174 28.6777 14.1376 29.7094 14.9008C28.3151 15.4082 26.9426 16.3467 25.8865 17.6205C26.2434 18.3023 26.6502 18.91 27.0836 19.4779C29.8947 16.4856 32.9901 17.138 31.9117 21.3197C29.6174 30.2223 21.2136 10.7735 20.5649 8.70604C21.0662 12.4232 21.9743 17.0325 23.2892 20.4574C25.3527 25.8324 28.1646 30.0445 31.3411 28.6935C33.3267 27.8488 34.9474 25.0618 35.6683 22.2638C36.6534 18.4422 35.8948 16.1783 34.3811 15.1456Z" fill="#14373C"/>
<path d="M20.8979 23.4666C12.7588 33.9409 5.83335 27.1758 6.00611 21.3034C5.10277 27.5888 11.0915 36.332 17.9213 30.5236C20.2831 28.5155 22.3217 25.9662 23.7776 23.8325L22.768 21.1631C22.1679 21.8686 21.5452 22.6349 20.8979 23.4666Z" fill="#E5A697"/>
<path d="M27.4045 19.1565C27.4045 19.1565 29.3893 16.9399 31.2671 17.3847C33.1448 17.8295 32.2326 20.9984 32.2326 20.9984C32.2326 20.9984 31.762 22.5717 31.3186 23.0362C30.8361 23.5417 30.6365 23.5619 30.6365 23.5619C30.6365 23.5619 31.8313 21.3235 31.5222 20.2853C31.2132 19.2472 30.5564 18.5958 29.8031 18.5958C29.0497 18.5958 27.4045 19.1565 27.4045 19.1565Z" fill="#E5A697"/>
</svg>
